<?xml version="1.0" encoding="UTF-8" standalone="no"?>
<!-- Created with Inkscape (http://www.inkscape.org/) -->

<svg
   version="1.1"
   id="svg2"
   width="104.88889"
   height="140.44444"
   viewBox="0 0 104.88889 140.44444"
   xmlns="http://www.w3.org/2000/svg"
   xmlns:svg="http://www.w3.org/2000/svg">
  <defs
     id="defs6" />
  <g
     id="g8">
    <g
       id="g116"
       transform="translate(-5.6264341)">
      <path
         style="fill:#ffffff;fill-opacity:1"
         id="path1704"
         d="M 74.225647,6.4920387 73.83834,45.249503 40.079737,64.292817 6.7084424,44.578667 7.09575,5.8212024 40.854352,-13.222112 Z"
         transform="matrix(1.5164713,0,0,1.5164713,-3.2218599,20.894926)" />
      <ellipse
         style="fill:#ffffff;fill-opacity:1;stroke-width:1.01825"
         id="path2018"
         cx="58.536552"
         cy="116.5321"
         rx="21.315527"
         ry="22.181133" />
      <path
         style="fill:#20b6ee;stroke-width:0.444444"
         d="m 54.885809,139.65642 c -7.85703,-1.38035 -14.824179,-6.96149 -17.449445,-13.97814 -1.931698,-5.16293 -2.103597,-9.43359 -0.604233,-15.01158 0.379604,-1.41222 0.582241,-2.67562 0.450304,-2.80755 -0.131936,-0.13194 -6.90982,-4.08181 -15.061964,-8.77749 C 9.399492,91.6967 7.293477,90.335638 6.621303,89.000327 5.906042,87.57942 5.844216,85.228878 5.844216,59.456599 c 0,-25.79802 0.06111,-28.116092 0.777087,-29.476219 C 7.284007,28.721454 11.029206,26.411454 32.065057,14.286943 54.672276,1.2567369 56.880151,0.0816627 58.509502,0.2127223 c 1.380236,0.1110218 7.094876,3.2073682 25.555556,13.8466927 13.077778,7.53703 24.327782,14.287883 25.000002,15.001895 l 1.22223,1.298202 v 29.346522 29.346524 l -1,0.98412 c -0.55,0.541262 -7.51878,4.733618 -15.486182,9.316342 l -14.48617,8.33221 0.7926,2.33012 c 3.269733,9.6125 -0.581507,20.67628 -9.117836,26.19358 -4.544995,2.93757 -11.063404,4.33302 -16.103893,3.44749 z m 12.416524,-4.10905 c 6.088738,-3.00922 10.459574,-8.98309 11.387814,-15.56439 2.220947,-15.74664 -14.311814,-27.9434 -28.73999,-21.20244 -3.16795,1.48009 -7.217503,5.09112 -8.868275,7.90795 -5.557596,9.48332 -2.638408,21.76803 6.578063,27.68222 3.722957,2.38902 6.646922,3.11546 11.837677,2.94103 4.170698,-0.14015 4.811369,-0.28498 7.804711,-1.76437 z m -11.12332,-9.25395 c -3.228338,-0.93234 -5.883635,-5.28448 -5.210791,-8.54069 0.360022,-1.74234 6.93024,-13.60699 7.54128,-13.61822 0.610885,-0.0112 6.930654,11.2381 7.489325,13.33116 0.939822,3.52105 -1.632151,7.81654 -5.287956,8.83151 -2.03252,0.56429 -2.566431,0.56385 -4.531858,-0.004 z m -13.42502,-25.3266 c 4.942034,-4.968686 12.501203,-7.387391 19.399367,-6.207204 5.735565,0.981278 11.86896,4.749454 14.835987,9.114764 0.659524,0.97034 1.32016,1.49068 1.707538,1.34489 1.109786,-0.41764 27.780975,-15.873863 28.593615,-16.57029 0.7323,-0.627569 0.77387,-2.45908 0.66667,-29.370923 L 107.84284,30.576439 83.398391,16.461798 C 69.953947,8.698744 58.640284,2.3467798 58.25692,2.3463216 57.644071,2.3455892 10.491354,29.279307 9.065057,30.444802 c -0.43397,0.354618 -0.555556,6.70395 -0.555556,29.011797 0,25.87587 0.06818,28.61511 0.725944,29.167803 0.399269,0.335485 7.149269,4.345858 15,8.911938 l 14.274057,8.30196 0.884044,-1.19086 c 0.486225,-0.65497 1.998426,-2.31125 3.360447,-3.68062 z M 53.842836,74.067652 c -4.989319,-0.966356 -10.803134,-3.946587 -14.174517,-7.266031 -2.582597,-2.542809 -5.830554,-7.345622 -5.938731,-8.781702 -0.170065,-2.25768 4.093491,-8.17704 8.16934,-11.342004 8.106601,-6.294912 18.954076,-7.331141 28.388352,-2.711862 4.116307,2.015457 9.344982,7.071435 11.429262,11.051768 l 1.399352,2.672333 -1.414307,2.651747 c -1.805716,3.385613 -6.172565,8.019982 -9.374689,9.949 -4.321716,2.60348 -7.941396,3.679973 -12.928507,3.844937 -2.444444,0.08086 -4.944444,0.05017 -5.555555,-0.06819 z m 9.189026,-6.091982 c 7.424111,-3.83916 8.79412,-13.516831 2.657138,-18.769862 -3.614316,-3.093715 -8.501778,-3.565906 -12.784218,-1.235111 -8.327171,4.532218 -7.350598,17.052355 1.588187,20.361324 2.207671,0.817235 6.625991,0.632849 8.538893,-0.356351 z m -8.16488,-4.721738 c -2.922631,-1.78204 -3.86136,-4.94552 -2.42864,-8.184417 1.127831,-2.549654 3.098338,-3.831205 5.894325,-3.833476 4.889297,-0.004 8.019444,4.990493 5.842813,9.322813 -1.667227,3.318405 -6.155156,4.617796 -9.308498,2.69508 z"
         id="path118" />
    </g>
  </g>
</svg>
