<svg xmlns="http://www.w3.org/2000/svg" width="106.524" height="104.439" viewBox="0 0 106.524 104.439">
  <g id="Prélévement_en_eau" data-name="Prélévement en eau" transform="translate(-173.992 -929.344)">
    <path id="Tracé_145" data-name="Tracé 145" d="M202.728,1021.639h49.049a3.17,3.17,0,0,0,2.746-1.586l24.525-42.476a3.172,3.172,0,0,0,0-3.171L254.523,931.93a3.17,3.17,0,0,0-2.746-1.586H202.728a3.17,3.17,0,0,0-2.746,1.586l-24.524,42.476a3.172,3.172,0,0,0,0,3.171l24.524,42.476A3.17,3.17,0,0,0,202.728,1021.639Z" transform="translate(0 0)" fill="#fff" stroke="#217aef" stroke-miterlimit="10" stroke-width="2"/>
    <g id="Groupe_177" data-name="Groupe 177" transform="translate(199.909 946.933)">
      <g id="Groupe_176" data-name="Groupe 176">
        <path id="Union_2" data-name="Union 2" d="M-6592.876,1946.754a27.376,27.376,0,0,1,27.346-27.342,27.373,27.373,0,0,1,27.344,27.342,27.374,27.374,0,0,1-27.344,27.345A27.377,27.377,0,0,1-6592.876,1946.754Zm2.28,0a25.1,25.1,0,0,0,25.065,25.067,25.094,25.094,0,0,0,25.064-25.067,25.092,25.092,0,0,0-25.064-25.064A25.093,25.093,0,0,0-6590.6,1946.754Zm14.81,18.23a1.136,1.136,0,0,1-1.137-1.14v-6.835a1.136,1.136,0,0,1,1.137-1.138h20.509a1.138,1.138,0,0,1,1.139,1.138v6.835a1.139,1.139,0,0,1-1.139,1.14Zm1.14-2.28h18.229v-4.555h-18.229Zm28.674-6.613-4.208-1.742a1.144,1.144,0,0,1-.615-1.491,1.136,1.136,0,0,1,1.487-.615l4.209,1.746a1.138,1.138,0,0,1,.615,1.488,1.138,1.138,0,0,1-1.052.7A1.1,1.1,0,0,1-6545.971,1956.09Zm-40.612-.617a1.141,1.141,0,0,1,.617-1.489l4.208-1.742a1.137,1.137,0,0,1,1.489.615,1.143,1.143,0,0,1-.615,1.491l-4.208,1.741a1.107,1.107,0,0,1-.438.088A1.146,1.146,0,0,1-6586.583,1955.473Zm-.725-7.156a1.139,1.139,0,0,1-1.14-1.138,1.139,1.139,0,0,1,1.14-1.14h4.557a1.139,1.139,0,0,1,1.14,1.14,1.139,1.139,0,0,1-1.14,1.138Zm38.868-.424a1.139,1.139,0,0,1-1.14-1.14,1.139,1.139,0,0,1,1.14-1.138l4.553,0a1.139,1.139,0,0,1,1.14,1.138,1.138,1.138,0,0,1-1.14,1.138Zm-15.479-2.75a1.137,1.137,0,0,1,0-1.612l11.278-11.276a1.134,1.134,0,0,1,1.61,0,1.139,1.139,0,0,1,0,1.612l-11.276,11.276a1.148,1.148,0,0,1-.808.333A1.142,1.142,0,0,1-6563.919,1945.144Zm13.125-4.494a1.14,1.14,0,0,1,.615-1.488l4.211-1.742a1.141,1.141,0,0,1,1.488.617,1.137,1.137,0,0,1-.616,1.488l-4.211,1.742a1.122,1.122,0,0,1-.437.086A1.136,1.136,0,0,1-6550.794,1940.65Zm-30.964.617-4.206-1.746a1.138,1.138,0,0,1-.616-1.489,1.142,1.142,0,0,1,1.491-.617l4.2,1.747a1.138,1.138,0,0,1,.615,1.489,1.137,1.137,0,0,1-1.051.7A1.129,1.129,0,0,1-6581.758,1941.267Zm3.335-5.794-3.22-3.22a1.141,1.141,0,0,1,0-1.61,1.136,1.136,0,0,1,1.611,0l3.22,3.221a1.135,1.135,0,0,1,0,1.608,1.135,1.135,0,0,1-.8.336A1.138,1.138,0,0,1-6578.423,1935.473Zm19-3.456a1.14,1.14,0,0,1-.616-1.489l1.744-4.206a1.142,1.142,0,0,1,1.489-.615,1.141,1.141,0,0,1,.616,1.488l-1.746,4.206a1.135,1.135,0,0,1-1.052.7A1.113,1.113,0,0,1-6559.426,1932.016Zm-13.7-.617-1.743-4.208a1.142,1.142,0,0,1,.616-1.489,1.147,1.147,0,0,1,1.491.617l1.741,4.208a1.142,1.142,0,0,1-.616,1.489,1.12,1.12,0,0,1-.435.086A1.138,1.138,0,0,1-6573.123,1931.4Zm6.322-1.31v-4.557a1.14,1.14,0,0,1,1.14-1.138,1.141,1.141,0,0,1,1.142,1.138v4.557a1.141,1.141,0,0,1-1.142,1.138A1.14,1.14,0,0,1-6566.8,1930.089Z" transform="translate(6592.875 -1919.411)" fill="#217aef" stroke="rgba(0,0,0,0)" stroke-miterlimit="10" stroke-width="1"/>
        <path id="Tracé_147" data-name="Tracé 147" d="M207.367,962.4a4.557,4.557,0,1,1,4.558-4.558A4.563,4.563,0,0,1,207.367,962.4Zm0-6.837a2.279,2.279,0,1,0,2.279,2.279A2.282,2.282,0,0,0,207.367,955.567Z" transform="translate(-180.022 -930.503)" fill="#217aef"/>
      </g>
    </g>
    <g id="Groupe_179" data-name="Groupe 179" transform="translate(187.846 1008.475)">
      <circle id="Ellipse_46" data-name="Ellipse 46" cx="12.334" cy="12.334" r="12.334" fill="#fff" stroke="#21b7ef" stroke-miterlimit="10" stroke-width="1.278"/>
      <g id="Groupe_178" data-name="Groupe 178" transform="translate(7.879 5.783)">
        <path id="Tracé_150" data-name="Tracé 150" d="M191.278,979.4l-3.6,6.274a4.456,4.456,0,1,0,7.731,0l-3.6-6.274A.311.311,0,0,0,191.278,979.4Z" transform="translate(-187.091 -979.245)" fill="#51c5ef"/>
      </g>
    </g>
    <g id="Groupe_182" data-name="Groupe 182" transform="translate(213.896 1008.475)">
      <circle id="Ellipse_47" data-name="Ellipse 47" cx="12.334" cy="12.334" r="12.334" fill="#fff" stroke="#17a59b" stroke-miterlimit="10" stroke-width="1.278"/>
      <g id="Groupe_181" data-name="Groupe 181" transform="translate(5.676 7.251)">
        <g id="Groupe_180" data-name="Groupe 180" transform="translate(0 2.996)">
          <path id="Tracé_151" data-name="Tracé 151" d="M213.089,982.459c-1.292,1.11-2.313,1.987-5.085.422-3.66-2.068-5.375-.594-6.751.589a.765.765,0,0,0-.091,1.064.731.731,0,0,0,1.043.093c1.292-1.11,2.313-1.987,5.083-.422a6.771,6.771,0,0,0,3.3,1.035,5.153,5.153,0,0,0,3.454-1.623.765.765,0,0,0,.089-1.064A.728.728,0,0,0,213.089,982.459Zm0,3.777c-1.292,1.11-2.313,1.989-5.085.424-3.66-2.068-5.375-.6-6.751.587a.768.768,0,0,0-.091,1.066.73.73,0,0,0,1.043.091c1.292-1.11,2.313-1.987,5.083-.422a6.777,6.777,0,0,0,3.3,1.036,5.155,5.155,0,0,0,3.454-1.625.765.765,0,0,0,.089-1.064A.729.729,0,0,0,213.089,986.236Z" transform="translate(-200.989 -981.846)" fill="#17a59b"/>
        </g>
        <rect id="Rectangle_47" data-name="Rectangle 47" width="13.315" height="1.574" rx="0.458" transform="translate(0)" fill="#17a59b"/>
      </g>
    </g>
    <g id="Groupe_184" data-name="Groupe 184" transform="translate(239.91 1008.475)">
      <circle id="Ellipse_48" data-name="Ellipse 48" cx="12.334" cy="12.334" r="12.334" fill="#fff" stroke="#093f93" stroke-miterlimit="10" stroke-width="1.278"/>
      <g id="Groupe_183" data-name="Groupe 183" transform="translate(5.038 6.335)">
        <path id="Tracé_152" data-name="Tracé 152" d="M217.109,982.613c1.416-1.217,2.535-2.178,5.57-.463a7.424,7.424,0,0,0,3.614,1.134,5.638,5.638,0,0,0,3.786-1.779.838.838,0,0,0,.1-1.165.8.8,0,0,0-1.143-.1c-1.416,1.217-2.535,2.178-5.572.463-4.01-2.267-5.889-.652-7.4.643a.84.84,0,0,0-.1,1.167A.8.8,0,0,0,217.109,982.613Zm11.926,1.766c-1.416,1.215-2.535,2.178-5.572.462-4.01-2.265-5.889-.652-7.4.645a.838.838,0,0,0-.1,1.165.8.8,0,0,0,1.143.1c1.416-1.217,2.535-2.178,5.57-.463a7.41,7.41,0,0,0,3.614,1.136,5.646,5.646,0,0,0,3.786-1.78.84.84,0,0,0,.1-1.167A.8.8,0,0,0,229.035,984.379Zm0,4.139c-1.416,1.217-2.535,2.178-5.572.462-4.01-2.265-5.889-.652-7.4.645a.84.84,0,0,0-.1,1.167.8.8,0,0,0,1.143.1c1.416-1.218,2.535-2.178,5.57-.463a7.422,7.422,0,0,0,3.614,1.134,5.646,5.646,0,0,0,3.786-1.78.84.84,0,0,0,.1-1.167A.8.8,0,0,0,229.035,988.518Z" transform="translate(-215.776 -979.567)" fill="#093f93"/>
      </g>
    </g>
  </g>
</svg>
